<?xml version="1.0" encoding="utf-8"?>
<!-- Generator: Adobe Illustrator 27.5.0, SVG Export Plug-In . SVG Version: 6.00 Build 0)  -->
<svg version="1.1" xmlns="http://www.w3.org/2000/svg" xmlns:xlink="http://www.w3.org/1999/xlink" x="0px" y="0px"
	 viewBox="0 0 1100 800" style="enable-background:new 0 0 1100 800;" xml:space="preserve">
<g id="background">
	<rect style="fill:transparent;" width="1100" height="800"/>
</g>
<g id="shadow">
	<g id="XMLID_307_">
		<path style="fill:#F7F7F7;" d="M329.475,644.914c-44.337,0.532-84.872,5.218-128.69,6.475
			c-22.156,0.636-94.877-1.107-108.923,11.31c-22.161,19.591,36.444,18.388,30.446,33.203c-1.189,2.937-5.661,4.956-8.387,7.516
			c-4.892,4.594-3.636,10.853,1.528,15.343c22.617,19.662,105.315,13.944,140.059,14.277c201.009,1.927,402.56,4.216,602.455-2.281
			c43.11-1.401,85.97-3.17,128.895-4.82c19.644-0.754,44.231-2.72,44.309-7.128c0.197-11.157-37.177,0.554-24.813-21.711
			c3.973-7.155,24.495-8.574,14.086-20.832c-11.443-13.476-37.874-23.884-62.298-27.291c-24.95-3.479-50.616-2.934-75.988-4.038
			c-46.576-2.028-93.362-2.415-140.085-2.596c-105.99-0.412-211.983,0.276-317.95,1.344
			C392.583,644.003,361.027,644.536,329.475,644.914z"/>
	</g>
</g>
<g id="object">
	<g>
		<g id="XMLID_1781_">
			<g id="XMLID_1782_">
				
					<rect x="168.15" y="213.161" transform="matrix(0.0454 -0.999 0.999 0.0454 -119.6255 440.007)" style="fill:#9EA6AD;" width="4.532" height="138.87"/>
			</g>
		</g>
		<g id="XMLID_1779_">
			<g id="XMLID_1780_">
				
					<rect x="187.154" y="134.795" transform="matrix(0.7997 -0.6004 0.6004 0.7997 -93.35 157.528)" style="fill:#9EA6AD;" width="4.532" height="167.754"/>
			</g>
		</g>
		<g id="XMLID_1776_">
			<g id="XMLID_1778_">
				<polygon style="fill:#EAC5B0;" points="646.972,377.86 647.581,367.375 652.073,367.15 653.245,374.319 655.384,373.23 
					653.77,382.209 649.092,383.072 				"/>
			</g>
			<g id="XMLID_1777_">
				<polygon style="fill:#145566;" points="705.516,419.367 672.244,416.448 655.854,377.161 646.801,380.121 655.384,434.462 
					707.357,443.91 				"/>
			</g>
		</g>
		<g id="XMLID_1773_">
			<g id="XMLID_1775_">
				<polygon style="fill:#EAC5B0;" points="229.482,357.458 227.96,347.029 223.45,347.195 222.902,354.465 220.67,353.562 
					223.066,362.398 227.818,362.853 				"/>
			</g>
			<g id="XMLID_1774_">
				<polygon style="fill:#145566;" points="164.307,408.685 212.211,399.334 220.542,357.533 229.851,359.703 227.19,417.763 
					179.389,433.723 				"/>
			</g>
		</g>
		<g id="XMLID_1752_">
			<g id="XMLID_1754_">
				<g id="XMLID_1770_">
					<g id="XMLID_1772_">
						<path style="fill:#1A3151;" d="M363.032,672.72c-1.025-1.129-2.223-1.745-3.575-1.533c-1.299,0.204-2.467,1.085-3.003,2.262
							c-0.365,0.803-0.442,1.698-0.515,2.574c-0.375,4.533-0.341,15.296,5.697,16.845c2.538,0.651,4.637-1.152,5.314-3.431
							C367.972,686.005,366.461,676.495,363.032,672.72z"/>
					</g>
					<g id="XMLID_1771_">
						<path style="fill:#EAC5B0;" d="M365.18,604.335l-0.316,27.649c0.367,12.281-1.55,24.631-1.182,36.913
							c0.085,2.824,0.82,5.803,0.109,8.602c-0.696,2.738-2.921,3.222-5.205,1.836c-3.06-1.858-2.567-6.196-3.076-9.361
							c-1.4-8.697-3.042-17.353-4.504-26.04c-0.717-4.259,0.761-10.227,0.439-14.536c0-0.003-4.467-23.172-4.467-23.172
							L365.18,604.335z"/>
					</g>
				</g>
				<g id="XMLID_1769_">
					<polygon style="fill:#D1E7F5;" points="333.589,559.66 345.623,613.115 348.179,663.596 367.26,663.167 372.449,521.965 
						335.459,522.637 					"/>
				</g>
				<g id="XMLID_1764_">
					<g id="XMLID_1766_">
						<g id="XMLID_1768_">
							<path style="fill:#1A3151;" d="M390.325,671.715c-1.07-1.069-2.29-1.615-3.628-1.323c-1.286,0.281-2.412,1.231-2.896,2.441
								c-0.33,0.825-0.368,1.726-0.403,2.607c-0.18,4.559,0.314,15.328,6.399,16.522c2.557,0.502,4.572-1.427,5.15-3.747
								C395.817,684.719,393.904,675.291,390.325,671.715z"/>
						</g>
						<g id="XMLID_1767_">
							<path style="fill:#EAC5B0;" d="M380.267,608.217l1.619,27.604c0.132,7.672,1.155,15.283,1.949,22.903
								c0.738,7.078-0.41,14.45,3.288,20.887c1.16,2.019,3.505,3.362,5.143,0.91c1.263-1.89,0.513-5.043,0.755-7.187
								c0.988-8.752,2.221-17.476,3.272-26.221c0.515-4.287-1.242-10.18-1.124-14.5c0-0.003,3.37-23.354,3.37-23.354
								L380.267,608.217z"/>
						</g>
					</g>
					<g id="XMLID_1765_">
						<polygon style="fill:#D1E7F5;" points="404.414,556.391 405.967,608.281 397.824,660.755 378.414,661.335 379.271,604.546 
							369,557.451 365.552,526.624 396.35,522.991 						"/>
					</g>
				</g>
				<g id="XMLID_1763_">
					<polygon style="fill:#EBB044;" points="380.051,416.796 346.871,416.004 327.633,451.782 334.471,485.294 335.688,525.398 
						383.018,526.043 398.591,523.515 394.456,480.665 396.827,423.425 					"/>
				</g>
				<g id="XMLID_1762_">
					<polygon style="fill:#EAC5B0;" points="335.754,509.603 334.23,515.143 342,521.487 348.037,518.764 349.631,512.258 
						344.894,510.42 345.093,508.941 343.8,507.283 					"/>
				</g>
				<g id="XMLID_1761_">
					<polygon style="fill:#EBB044;" points="346.909,417.276 306.379,461.749 300.287,479.745 333.418,514.484 343.466,507.724 
						322.221,478.664 342.494,463.637 					"/>
				</g>
				<g id="XMLID_1760_">
					<polygon style="fill:#EBB044;" points="378.796,438.475 396.079,473.026 414.713,476.729 450.639,446.369 442.63,437.284 
						410.793,455.122 393.913,423.425 					"/>
				</g>
				<g id="XMLID_1755_">
					<g id="XMLID_1759_">
						<path style="fill:#EAC5B0;" d="M377.973,388.997c-5.002-14.543-24.2-9.093-28.158,3.856
							c-2.582,8.447,3.942,19.408,12.694,21.834c0.038,0.332,0.068,0.643,0.069,0.906c0.006,1.356,0.173,2.693,0.374,4.047
							c0.075,0.505,7.734-0.967,8.589-1.135c0.299-0.059,0.632-0.14,0.793-0.391c0.309-0.481-0.193-1.897-0.25-2.432
							c-0.066-0.631-0.132-1.262-0.199-1.893c4.317-2.107,7.041-6.595,7.802-11.164
							C380.451,398.036,379.476,393.367,377.973,388.997z"/>
					</g>
					<g id="XMLID_1756_">
						<g id="XMLID_1758_">
							<path style="fill:#1A3151;" d="M365.448,375.856c-1.029,1.045-1.434,2.503-1.731,3.903c-0.177,0.836-0.33,1.701-0.151,2.529
								c0.713,3.301,3.987,3.129,6.52,4.193c3.123,1.312,5.816,3.728,7.564,6.51c2.738,4.357,1.506,9.963,0.396,14.769
								c-0.391,1.693-1.179,4.211,0.135,5.722c1.335,1.535,4.42,1.298,6.018,0.508c1.461-0.722,2.66-2.056,4.264-2.325
								c1.698-0.284,3.992,0.462,4.781-1.095c0.22-0.433,0.24-0.963,0.518-1.36c0.938-1.341,3.271,0.229,4.593-0.716
								c0.813-0.582,0.807-1.821,0.532-2.802c-0.275-0.981-0.738-1.975-0.546-2.972c0.165-0.857,0.783-1.535,1.165-2.315
								c0.755-1.541,0.494-3.547-0.63-4.848c-2.09-2.419-6.135-1.96-8.375-4.235c-1.167-1.185-1.619-2.895-2.054-4.513
								c-0.435-1.618-0.957-3.324-2.204-4.42c-1.541-1.354-3.765-1.124-5.285-2.731c-0.893-0.944-1.489-2.173-2.491-2.994
								c-1.321-1.083-3.904-1.915-5.548-2.467C370.311,373.32,367.396,373.878,365.448,375.856z"/>
						</g>
						<g id="XMLID_1757_">
							<path style="fill:#1A3151;" d="M353.304,399.063c-0.089,4.787,2.288,9.961,0.083,14.174c-2.225,4.252-7.772,5.018-12.5,5.24
								c-0.778,0.036-10.755,0.898-10.797,0.709c-0.747-3.334-1.52-6.734-3.262-9.662c-1.742-2.928-4.656-5.353-7.993-5.561
								c0.963-0.167,1.448-1.345,1.337-2.339c-0.111-0.994-0.626-1.89-0.923-2.844c-0.731-2.346-0.02-5.083,1.749-6.732
								c3.529-3.29,9.929-1.923,12.954-5.702c1.876-2.343,1.653-5.741,2.636-8.601c1.901-5.531,7.956-6.688,12.482-9.186
								c4.777-2.637,9.276-4.081,14.79-3.163c6.836,1.139,11.917,8.098,9.28,14.647c-3.381,8.4-16.899,7.675-19.43,16.203
								C353.439,397.163,353.322,398.105,353.304,399.063z"/>
						</g>
					</g>
				</g>
			</g>
			<g id="XMLID_1753_">
				<polygon style="fill:#D1D6D6;" points="356.686,416.607 366.979,431.155 371.818,430.759 379.883,416.004 				"/>
			</g>
		</g>
		<g id="XMLID_1750_">
			<g id="XMLID_1751_">
				
					<rect x="848.514" y="78.055" transform="matrix(0.1321 -0.9912 0.9912 0.1321 577.7644 983.9676)" style="fill:#9EA6AD;" width="4.532" height="167.988"/>
			</g>
		</g>
		<g id="XMLID_1748_">
			<g id="XMLID_1749_">
				
					<rect x="296.833" y="264.361" transform="matrix(0.6841 -0.7293 0.7293 0.6841 -185.7048 339.4837)" style="fill:#9EA6AD;" width="4.532" height="239.572"/>
			</g>
		</g>
		<g id="XMLID_1746_">
			<g id="XMLID_1747_">
				
					<rect x="874.559" y="104.891" transform="matrix(0.5612 -0.8277 0.8277 0.5612 190.085 828.8894)" style="fill:#9EA6AD;" width="4.532" height="260.543"/>
			</g>
		</g>
		<g id="XMLID_1725_">
			<g id="XMLID_1745_">
				<path style="fill:#145566;" d="M136.332,497.298c1.669-8.302,2.973-15.964,3.092-20.12c0.359-12.498,1.959-53.776,1.959-53.776
					l7.758-15.789l1.432,0.014c-0.103-0.012-0.206-0.024-0.309-0.036c0.145-1.348,0.083-2.466-0.124-3.444
					c-13.526,0.813-27.391,7.906-31.272,21.076c-0.32,1.085-0.569,2.194-0.659,3.321c-0.541,6.766,1.526,11.764-0.426,18.56
					c-1.696,5.905-3.234,11.897-4.362,17.939c-1.633,8.746-3.142,17.45-4.33,26.132c-1.316,9.615-2.243,19.202-2.512,28.733
					c-0.03,1.054-0.242,4-0.361,7.52c-0.249,7.373-0.089,17.235,3.015,17.604c0.581,0.069,1.142-0.188,1.653-0.437
					c3.994-1.94,7.14-4.473,10.661-6.687l0.189-38.461L136.332,497.298z"/>
			</g>
			<g id="XMLID_1744_">
				<path style="fill:#145566;" d="M207.683,536.827c-0.794-8.185-1.618-16.367-2.625-24.529
					c-2.008-16.279-4.742-32.519-9.368-48.278c-1.767-6.02-3.806-11.956-5.843-17.891c-2.481-7.226-4.963-14.452-7.445-21.679
					c-3.084-8.981-8.289-15.308-17.403-18.45c-1.628-0.561-3.341-0.994-5.107-1.311c-0.043,0.186-0.082,0.374-0.107,0.572
					c-0.106,0.862-0.352,1.819-0.898,2.445l5.982,0.057c0,0,16.878,58.982,17.498,69.147c0.236,3.864,1.02,12.3,1.892,21.186
					l9.165,1.35l0.393,33.991c0.513,0.147,1.023,0.29,1.53,0.425c2.908,0.772,5.274,2.891,7.69,4.553
					C206.605,540.871,208.17,541.843,207.683,536.827z"/>
			</g>
			<g id="XMLID_1743_">
				<path style="fill:#1A3151;" d="M169.113,528.33c-0.663,0.05-1.34,0.102-2.027,0.156l-6.566,63.091l7.059,91.759h0.067v-1.385
					h11.774l14.934-102.18l-0.536-46.333c-7.138-2.053-14.871-5.221-22.327-5.155C170.699,528.29,169.906,528.311,169.113,528.33z"
					/>
			</g>
			<g id="XMLID_1742_">
				<path style="fill:#145566;" d="M184.259,498.098c1.381,14.063,2.982,29.257,2.982,29.257s-7.41,0.175-18.129,0.974
					c0.793-0.018,1.586-0.039,2.378-0.046c7.456-0.066,15.189,3.102,22.327,5.155l-0.393-33.991L184.259,498.098z"/>
			</g>
			<g id="XMLID_1741_">
				<polygon style="fill:#1A3151;" points="167.645,683.336 167.645,688.244 180.231,694.537 186.524,688.244 180.231,681.951 
					179.419,681.951 179.217,683.336 				"/>
			</g>
			<g id="XMLID_1740_">
				<polygon style="fill:#1A3151;" points="167.645,683.336 179.217,683.336 179.419,681.951 167.645,681.951 				"/>
			</g>
			<g id="XMLID_1739_">
				<path style="fill:#1A3151;" d="M150.616,530.108c-0.288,0.035-0.574,0.068-0.863,0.103c-7.496,1.604-12.363,2.231-15.523,2.396
					c-3.04,0.797-6.003,1.804-8.777,3.125c-1.384,0.659-2.668,1.399-3.906,2.177l-0.039,8.009l14.291,136.034h11.717v1.385h0.067
					l12.883-91.245l0.053-0.514l-0.292-3.801L150.616,530.108z"/>
			</g>
			<g id="XMLID_1738_">
				<path style="fill:#145566;" d="M134.23,532.607c-5.111,0.266-5.747-0.68-5.747-0.68s4.611-18.519,7.848-34.628l-14.595,2.149
					l-0.189,38.461c1.238-0.778,2.522-1.517,3.906-2.177C128.227,534.411,131.19,533.404,134.23,532.607z"/>
			</g>
			<g id="XMLID_1737_">
				<path style="fill:#1A3151;" d="M150.616,530.108l9.611,57.668l0.292,3.801l6.566-63.091
					C162.089,528.881,156.476,529.408,150.616,530.108z"/>
			</g>
			<g id="XMLID_1736_">
				<polygon style="fill:#1A3151;" points="135.798,681.951 134.929,681.951 128.636,688.244 134.929,694.537 147.515,688.244 
					147.515,683.336 135.944,683.336 				"/>
			</g>
			<g id="XMLID_1735_">
				<polygon style="fill:#1A3151;" points="135.798,681.951 135.944,683.336 147.515,683.336 147.515,681.951 				"/>
			</g>
			<g>
				<path style="fill:#FFFFFF;" d="M184.259,498.098c-0.872-8.887-1.657-17.322-1.892-21.186
					c-0.62-10.166-17.498-69.147-17.498-69.147l-5.982-0.057c-0.066,0.075-0.134,0.148-0.208,0.213
					c-0.185,0.16-0.398,0.287-0.643,0.367c-0.489,0.161-1.019,0.102-1.53,0.042c-1.978-0.234-3.955-0.468-5.933-0.702l-1.432-0.014
					l-7.758,15.789c0,0-1.6,41.278-1.959,53.776c-0.12,4.156-1.424,11.818-3.092,20.12c-3.238,16.109-7.848,34.628-7.848,34.628
					s0.636,0.947,5.747,0.68c3.16-0.165,8.027-0.792,15.523-2.396c0.289-0.035,0.575-0.068,0.863-0.103
					c5.86-0.7,11.474-1.227,16.47-1.622c0.688-0.054,1.364-0.106,2.027-0.156c10.719-0.799,18.129-0.974,18.129-0.974
					S185.64,512.161,184.259,498.098z"/>
			</g>
			<g id="XMLID_1734_">
				<path style="fill:#EAC5B0;" d="M159.891,404.69c0.773-3.328,4.45-4.827,6.431-7.779c2.245-3.346,3.42-7.245,3.928-11.215
					c0.009-0.067,0.017-0.135,0.025-0.203c-0.29,0.159-0.594,0.294-0.912,0.402c-0.389-1.592,0.358-3.212,0.712-4.814
					c0.089-0.405,0.106-0.822,0.081-1.245c-2.843-0.491-5.712-1.547-7.801-2.459c-4.349-1.898-12.819-3.921-17.334-1.679
					c-3.571,1.773-2.474,7.427-2.295,11.003c0.046,0.919,0.117,1.855-0.095,2.749c-0.218,0.92-0.791,1.542-1.148,2.316
					c0.398,1.393,1.05,2.716,2.112,3.915c2.862,3.231,5.773,4.819,6.544,8.466C153.463,403.947,156.763,404.129,159.891,404.69z"/>
			</g>
			<g id="XMLID_1733_">
				<path style="fill:#EAC5B0;" d="M150.264,407.591c0.103,0.012,0.206,0.024,0.309,0.036l8.315,0.079
					c0.545-0.626,0.792-1.582,0.898-2.445c0.024-0.198,0.063-0.386,0.107-0.572c-3.129-0.562-6.429-0.743-9.751-0.543
					C150.347,405.125,150.409,406.243,150.264,407.591z"/>
			</g>
			<g id="XMLID_1732_">
				<path style="fill:#EAC5B0;" d="M156.505,408.33c0.511,0.061,1.041,0.119,1.53-0.042c0.246-0.081,0.459-0.207,0.643-0.368
					c0.075-0.065,0.143-0.138,0.208-0.213l-8.315-0.079C152.55,407.862,154.528,408.096,156.505,408.33z"/>
			</g>
			<g id="XMLID_1731_">
				<path style="fill:#1A3151;" d="M170.335,379.868c0.378,1.804,0.177,3.757-0.059,5.624c1.957-1.07,3.298-3.221,4.099-5.443
					C173.101,380.184,171.724,380.097,170.335,379.868z"/>
			</g>
			<g id="XMLID_1730_">
				<path style="fill:#1A3151;" d="M170.335,379.868c-0.06-0.01-0.119-0.022-0.179-0.032c0.025,0.423,0.009,0.84-0.081,1.245
					c-0.354,1.601-1.1,3.221-0.712,4.814c0.318-0.108,0.622-0.243,0.912-0.402C170.512,383.626,170.713,381.673,170.335,379.868z"/>
			</g>
			<g id="XMLID_1729_">
				<path style="fill:#1A3151;" d="M141.256,380.842c0.059-1.416,0.128-2.875,0.727-4.159c1.05-2.254,3.497-3.498,5.871-4.236
					c6.06-1.883,12.991-1.419,18.327,2.016c1.42,0.914,2.746,2.063,3.515,3.566c0.12,0.234,0.221,0.474,0.312,0.716
					c-0.359-1.749-1.171-3.491-0.894-4.748c0.4-1.813,2.906-2.205,4.303-1.205c1.001,0.717,1.552,1.991,1.655,3.259
					c0.103,1.268-0.194,2.537-0.602,3.736c-0.03,0.088-0.063,0.176-0.095,0.263c0.866-0.092,1.686-0.283,2.425-0.607
					c3.809-1.67,6.906-8.327,6.777-12.425c-0.06-1.918-0.791-3.633-2.505-4.791c-1.478-0.998-3.182-1.826-4.08-3.413
					c-0.697-1.232-0.799-2.756-1.49-3.991c-1.25-2.237-3.964-2.895-6.325-3.653c-5.906-1.897-9.086-4.087-15.342-1.658
					c-4.447,1.727-10.194,1.958-14.322,4.476c-1.724,1.052-3.191,2.741-4.394,4.623c-4.17,6.52-5.171,15.688-2.455,22.489
					c0.608,1.522,1.38,2.922,2.206,4.262c1.651,2.68,3.42,5.978,6.344,7.29c0.047-0.327,0.147-0.614,0.271-0.884
					C140.503,388.333,141.109,384.458,141.256,380.842z"/>
			</g>
			<g id="XMLID_1728_">
				<path style="fill:#1A3151;" d="M142.726,386.701c-0.18-3.576-1.276-9.229,2.295-11.003c4.515-2.242,12.985-0.22,17.334,1.679
					c2.089,0.912,4.958,1.968,7.801,2.459c-0.022-0.361-0.073-0.726-0.148-1.091c-0.091-0.243-0.192-0.483-0.312-0.716
					c-0.769-1.503-2.095-2.652-3.515-3.566c-5.336-3.435-12.267-3.899-18.327-2.016c-2.375,0.738-4.821,1.983-5.871,4.236
					c-0.599,1.285-0.668,2.743-0.727,4.159c-0.147,3.616-0.753,7.492,0.227,10.924c0.357-0.775,0.929-1.396,1.148-2.316
					C142.843,388.556,142.772,387.62,142.726,386.701z"/>
			</g>
			<g id="XMLID_1727_">
				<path style="fill:#1A3151;" d="M175.072,376.05c-0.103-1.268-0.653-2.542-1.655-3.259c-1.397-1-3.903-0.607-4.303,1.205
					c-0.277,1.257,0.534,2.999,0.894,4.748c0.137,0.367,0.247,0.742,0.327,1.124c1.389,0.228,2.766,0.316,4.04,0.181
					c0.032-0.088,0.065-0.175,0.095-0.263C174.878,378.588,175.174,377.319,175.072,376.05z"/>
			</g>
			<g id="XMLID_1726_">
				<path style="fill:#1A3151;" d="M170.008,378.745c0.075,0.365,0.126,0.73,0.148,1.091c0.06,0.01,0.119,0.023,0.179,0.032
					C170.255,379.486,170.145,379.111,170.008,378.745z"/>
			</g>
		</g>
		<g id="XMLID_1704_">
			<g id="XMLID_1724_">
				<polygon style="fill:#EAC5B0;" points="920.355,421.473 936.396,417.458 951.573,420.495 937.784,431.107 				"/>
			</g>
			<g id="XMLID_1718_">
				<g id="XMLID_1720_">
					<g id="XMLID_1723_">
						<path style="fill:#1A3151;" d="M927.505,393.48c-2.625,4.202-1.336,9.576-0.178,14.183c0.473,1.882,1.285,4.549-0.534,5.954
							c-2.036,1.573-5.39,0.071-6.446-1.918c-0.746-1.404-0.823-3.014-0.841-4.565c-0.081-6.952-0.184-16.687,2.469-23.132
							c2.127-5.168,11.613-12.544,17.257-7.055c1.025,0.997,1.443,2.394,1.754,3.736c0.186,0.801,0.348,1.631,0.184,2.427
							c-0.653,3.174-3.868,3.031-6.337,4.069C931.789,388.459,929.181,390.797,927.505,393.48z"/>
					</g>
					<g id="XMLID_1722_">
						<path style="fill:#EAC5B0;" d="M933.518,413.442c-4.301-1.982-7.059-6.295-7.874-10.697
							c-0.815-4.402,0.074-8.891,1.487-13.097c4.701-13.996,23.615-8.891,27.683,3.514
							C958.36,403.974,946.023,419.205,933.518,413.442z"/>
					</g>
					<g id="XMLID_1721_">
						<path style="fill:#1A3151;" d="M951.909,399.553c-0.384,1.753-0.087,3.834-0.4,5.661c-0.576,3.363-2.617,7.319-2.366,10.637
							c3.415,0.584,8.042-0.208,11.175-1.69c3.201-1.513,3.831-5.065,5.45-8.27c1.498-2.964,3.141-5.9,3.96-9.119
							c4.482-17.623-9.811-32.539-27.496-29.529c-6.691,1.139-11.577,7.855-8.897,14.125c2.883,6.744,12.866,7.362,17.081,13.02
							C951.35,395.644,951.786,397.507,951.909,399.553z"/>
					</g>
				</g>
				<g id="XMLID_1719_">
					<path style="fill:#EAC5B0;" d="M933.539,412.246c-0.137,1.323-0.274,2.647-0.412,3.97c-0.063,0.607-0.579,2.228-0.281,2.761
						c0.155,0.278,0.483,0.357,0.776,0.413c0.84,0.159,8.373,1.54,8.454,0.966c0.218-1.541,0.401-3.06,0.427-4.594
						c0.02-1.239,0.524-3.412,0.202-4.468c-1.517,0.579-2.964,0.763-4.549,0.755c-1.53-0.007-3.059-0.044-4.586-0.111
						C933.56,412.041,933.549,412.143,933.539,412.246z"/>
				</g>
			</g>
			<g id="XMLID_1715_">
				<g id="XMLID_1717_">
					<polygon style="fill:#EAC5B0;" points="877.802,523.555 872.566,522.539 867.323,529.995 870.314,535.285 876.449,536.302 
						878.709,528.759 					"/>
				</g>
				<g id="XMLID_1716_">
					<polygon style="fill:#9EA6AD;" points="927.14,429.888 907.772,430.969 895.532,483.157 872.525,521.245 878.911,528.611 
						909.339,498.017 					"/>
				</g>
			</g>
			<g id="XMLID_1712_">
				<g id="XMLID_1714_">
					<path style="fill:#1A3151;" d="M919.185,677.819c0.875-1.478,2.068-2.433,3.639-2.514c1.509-0.078,3.037,0.616,3.928,1.784
						c0.607,0.796,0.914,1.761,1.21,2.705c1.533,4.888,4.135,16.709-2.267,19.816c-2.691,1.305-5.491-0.185-6.811-2.528
						C916.895,693.551,916.26,682.761,919.185,677.819z"/>
				</g>
				<g id="XMLID_1713_">
					<path style="fill:#EAC5B0;" d="M930.789,602.511l-0.843,31.035c0.209,13.793-2.208,27.626-1.999,41.42
						c0.048,3.172,0.842,6.528-0.024,9.659c-0.847,3.063-3.411,3.57-6.011,1.977c-3.483-2.135-2.841-6.997-3.372-10.558
						c-1.457-9.786-3.194-19.531-4.723-29.306c-0.75-4.792,1.051-11.469,0.757-16.312c0-0.003-4.729-26.086-4.729-26.086
						L930.789,602.511z"/>
				</g>
			</g>
			<g id="XMLID_1709_">
				<g id="XMLID_1711_">
					<path style="fill:#1A3151;" d="M941.144,679.034c1.119-1.319,2.461-2.071,4.024-1.901c1.501,0.163,2.887,1.091,3.563,2.384
						c0.46,0.882,0.595,1.882,0.723,2.861c0.663,5.065,1.177,17.138-5.674,19.184c-2.879,0.859-5.381-1.056-6.276-3.577
						C936.156,694.186,937.403,683.443,941.144,679.034z"/>
				</g>
				<g id="XMLID_1710_">
					<path style="fill:#EAC5B0;" d="M935.166,602.444l1.783,30.995c0.209,13.793,3.044,27.547,3.254,41.341
						c0.048,3.172-0.643,6.55,0.317,9.654c0.939,3.036,3.518,3.465,6.068,1.793c3.417-2.24,2.628-7.08,3.05-10.656
						c1.16-9.826,2.6-19.618,3.832-29.436c0.604-4.813-1.398-11.431-1.251-16.282c0-0.003,3.937-26.217,3.937-26.217
						L935.166,602.444z"/>
				</g>
			</g>
			<g id="XMLID_1708_">
				<path style="fill:#9EA6AD;" d="M950.933,417.9l-13.15,6.954l-14.818-5.351l-15.194,11.466c0,0,1.573,47.793,0.993,65.485
					c-0.58,17.692-1.742,32.068-3.28,57.953c-1.692,28.481,5.572,62.737,5.572,62.737l59.128-0.896c0,0,12.037-64.823,5.845-81.626
					c-6.192-16.804-2.508-33.53-2.717-47.281c-0.208-13.751-5.99-59.844-5.99-59.844L950.933,417.9z"/>
			</g>
			<g id="XMLID_1705_">
				<g id="XMLID_1707_">
					<polygon style="fill:#EAC5B0;" points="1006.711,376.89 1012.923,378.971 1020.562,370.287 1017.801,363.114 1010.495,360.898 
						1006.478,370.142 					"/>
				</g>
				<g id="XMLID_1706_">
					<polygon style="fill:#9EA6AD;" points="954.563,445.875 996.367,432.411 1017.378,376.568 1004.928,373.471 980.229,415.902 
						954.719,421.304 					"/>
				</g>
			</g>
		</g>
		<g id="XMLID_1702_">
			<g id="XMLID_1703_">
				
					<rect x="364.707" y="394.244" transform="matrix(0.8219 -0.5697 0.5697 0.8219 -139.1551 347.981)" style="fill:#9EA6AD;" width="244.326" height="4.532"/>
			</g>
		</g>
		<g id="XMLID_1700_">
			<g id="XMLID_1701_">
				
					<rect x="480.767" y="139.599" transform="matrix(0.5271 -0.8498 0.8498 0.5271 5.5562 534.5168)" style="fill:#9EA6AD;" width="4.532" height="245.334"/>
			</g>
		</g>
		<g id="XMLID_1698_">
			<g id="XMLID_1699_">
				
					<rect x="391.176" y="113.823" transform="matrix(0.0945 -0.9955 0.9955 0.0945 49.125 671.0643)" style="fill:#9EA6AD;" width="4.532" height="389.411"/>
			</g>
		</g>
		<g id="XMLID_1696_">
			<g id="XMLID_1697_">
				
					<rect x="546.673" y="236.672" transform="matrix(0.7292 -0.6843 0.6843 0.7292 19.3508 526.7751)" style="fill:#9EA6AD;" width="257.15" height="4.532"/>
			</g>
		</g>
		<g id="XMLID_1694_">
			<g id="XMLID_1695_">
				
					<rect x="703.264" y="259.68" transform="matrix(0.5457 -0.838 0.838 0.5457 -21.1426 776.4086)" style="fill:#9EA6AD;" width="4.532" height="296.049"/>
			</g>
		</g>
		<g id="XMLID_1692_">
			<g id="XMLID_1693_">
				
					<rect x="587.169" y="312.618" transform="matrix(0.9995 -0.0326 0.0326 0.9995 -9.8485 25.9449)" style="fill:#9EA6AD;" width="406.531" height="4.532"/>
			</g>
		</g>
		<g id="XMLID_1691_">
			<circle style="fill:#B5D6CA;" cx="570.816" cy="308.529" r="122.578"/>
		</g>
		<g id="XMLID_1690_">
			<circle style="fill:#3ABABA;" cx="374.4" cy="183.863" r="57.43"/>
		</g>
		<g id="XMLID_1689_">
			<path style="fill:#1A3151;" d="M172.836,285.749c0-36.04,29.217-65.257,65.257-65.257c36.04,0,68.629,29.217,68.629,65.257
				c0,36.04-32.589,65.257-68.629,65.257C202.053,351.006,172.836,321.789,172.836,285.749z"/>
		</g>
		<g id="XMLID_1688_">
			
				<ellipse transform="matrix(0.2298 -0.9732 0.9732 0.2298 -149.2623 743.5948)" style="fill:#3ABABA;" cx="395.155" cy="466.098" rx="51.497" ry="51.497"/>
		</g>
		<g id="XMLID_1687_">
			<circle style="fill:#145566;" cx="767.522" cy="155.34" r="56.939"/>
		</g>
		<g id="XMLID_1686_">
			
				<ellipse transform="matrix(0.7071 -0.7071 0.7071 0.7071 -97.7855 727.7407)" style="fill:#1A3151;" cx="829.568" cy="481.908" rx="62.046" ry="62.046"/>
		</g>
		<g id="XMLID_1685_">
			
				<ellipse transform="matrix(0.7071 -0.7071 0.7071 0.7071 70.4118 786.5405)" style="fill:#3ABABA;" cx="984.644" cy="308.276" rx="70.356" ry="70.356"/>
		</g>
		<g id="XMLID_1684_">
			
				<ellipse transform="matrix(0.3827 -0.9239 0.9239 0.3827 416.6326 969.8243)" style="fill:#B5D6CA;" cx="934.038" cy="173.145" rx="34.748" ry="34.748"/>
		</g>
		<g id="XMLID_1683_">
			<circle style="fill:#EBB044;" cx="142.429" cy="151.596" r="34.749"/>
		</g>
		<g id="XMLID_1682_">
			<circle style="fill:#B5D6CA;" cx="101.053" cy="279.444" r="38.053"/>
		</g>
		<g id="XMLID_1681_">
			
				<ellipse transform="matrix(0.2298 -0.9732 0.9732 0.2298 -285.1055 553.8426)" style="fill:#D1E7F5;" cx="207.352" cy="457.044" rx="42.494" ry="42.494"/>
		</g>
		<g id="XMLID_1678_">
			<g id="XMLID_1680_">
				<polygon style="fill:#EAC5B0;" points="155.487,468.149 162.187,467.712 166.022,463.201 167.391,463.528 167.057,465.23 
					171.312,462.396 175.438,462.828 178.163,467.63 177.335,473.273 172.28,475.474 165.766,474.732 156.62,475.727 				"/>
			</g>
			<g id="XMLID_1679_">
				<polygon style="fill:#145566;" points="159.005,464.913 122.375,465.88 129.824,409.631 104.814,434.271 101.053,486.178 
					114.522,493.514 164.515,477.572 				"/>
			</g>
		</g>
		<g id="XMLID_1670_">
			<g id="XMLID_1677_">
				<polygon style="fill:#1A3151;" points="701.442,529.135 701.442,544.25 681.289,609.747 686.327,677.764 673.731,680.283 
					653.578,597.152 654.349,572.693 663.655,522.81 				"/>
			</g>
			<g id="XMLID_1676_">
				<polygon style="fill:#1A3151;" points="685.455,547.032 705.705,685.584 714.91,685.584 720.723,610.01 733.319,534.436 				"/>
			</g>
			<g id="XMLID_1675_">
				<polygon style="fill:#3ABABA;" points="675.385,678.992 665.77,689.168 668.548,694.326 688.387,684.803 684.733,677.264 				
					"/>
			</g>
			<g id="XMLID_1674_">
				<polygon style="fill:#3ABABA;" points="705.876,683.639 694.023,691.09 695.424,696.779 717.013,692.514 715.359,684.301 				
					"/>
			</g>
			<g id="XMLID_1671_">
				<g id="XMLID_1673_">
					<path style="fill:#EAC5B0;" d="M701.562,378.351c5.623,5.948,15.78,6.146,20.591,12.793c3.128,4.322,3.049,10.525,0.704,15.456
						c-1.093,2.298-2.687,4.435-4.857,5.732c-1.408,0.842-3.005,1.3-4.61,1.538c-2.146,0.318-4.325,0.22-6.422-0.242
						c-0.356,1.905-0.54,3.842-0.547,5.78c-3.752-1.474-8.725-0.244-12.477-1.718c0.845-2.159,2.909-7.022,3.754-9.18
						c-0.794-0.81-1.518-1.69-2.141-2.647c-3.766-5.789-3.91-13.848-0.357-19.95C696.865,383.054,699.219,380.676,701.562,378.351z"
						/>
				</g>
				<g id="XMLID_1672_">
					<polygon style="fill:#1A3151;" points="701.423,381.56 722.086,396.367 712.701,413.909 721.779,414.538 740.342,388.764 
						714.554,364.175 697.062,360.455 691.429,367.591 695.353,383.748 					"/>
				</g>
			</g>
		</g>
		<g id="XMLID_1669_">
			<polygon style="fill:#EAC5B0;" points="447.366,449.049 450.079,443.984 443.907,436.077 437.417,437.395 434.421,443.387 
				438.633,446.228 438.112,447.626 439.005,449.529 			"/>
		</g>
		<g id="XMLID_1666_">
			<g id="XMLID_1668_">
				<polygon style="fill:#EAC5B0;" points="622.9,399.117 618.968,389.03 623.206,387.161 627.428,393.473 629.022,391.659 
					631.336,400.701 627.192,403.238 				"/>
			</g>
			<g id="XMLID_1667_">
				<polygon style="fill:#145566;" points="712.572,431.851 668.093,436.021 631.579,397.377 623.615,402.831 652.969,453.924 
					712.572,463.838 				"/>
			</g>
		</g>
		<g id="XMLID_1665_">
			<path style="fill:#145566;" d="M678.365,416.807l30.019-3.015c0,0,24.146,28.132,35.893,69.245
				c11.747,41.113-14.357,98.778-14.357,98.778s-81.076-16.551-94.377-19.161l26.24-82.227L678.365,416.807z"/>
		</g>
	</g>
</g>
</svg>
